<?xml version="1.0" standalone="no"?>
<!DOCTYPE svg PUBLIC "-//W3C//DTD SVG 20010904//EN"
 "http://www.w3.org/TR/2001/REC-SVG-20010904/DTD/svg10.dtd">
<svg version="1.0" xmlns="http://www.w3.org/2000/svg"
 width="160.000000pt" height="51.000000pt" viewBox="0 0 160.000000 51.000000"
 preserveAspectRatio="xMidYMid meet">

<g transform="translate(0.000000,51.000000) scale(0.100000,-0.100000)"
fill="#000000" stroke="none">
<path d="M155 456 c-16 -7 -47 -31 -67 -54 -73 -81 -77 -191 -10 -281 28 -38
112 -81 160 -81 29 0 32 3 32 30 0 27 3 30 29 30 26 0 30 4 33 33 2 26 8 33
30 35 21 3 27 9 30 30 2 22 9 28 36 30 30 3 32 6 32 40 -1 73 -59 160 -127
188 -41 18 -139 17 -178 0z m185 -173 c0 -65 -3 -80 -22 -100 -31 -33 -38 -29
-38 24 l0 47 -53 -52 -53 -53 -19 21 c-18 20 -18 21 35 75 l54 55 -45 0 c-57
0 -65 7 -37 37 19 20 31 23 100 23 l78 0 0 -77z"/>
<path d="M1066 462 c-6 -10 -66 -161 -66 -167 0 -15 30 -2 35 15 5 16 15 20
47 20 31 0 41 -4 45 -20 6 -22 33 -28 33 -7 0 13 -49 132 -63 155 -9 14 -23
16 -31 4z m28 -100 c-35 -8 -41 2 -26 38 l15 35 12 -35 c10 -29 10 -36 -1 -38z"/>
<path d="M1366 463 c-3 -3 -6 -44 -6 -90 0 -67 3 -83 15 -83 12 0 15 16 15 84
0 78 -7 105 -24 89z"/>
<path d="M500 450 c0 -5 11 -10 25 -10 24 0 25 -3 25 -59 0 -112 28 -128 32
-18 3 70 4 72 31 75 55 7 25 22 -43 22 -40 0 -70 -4 -70 -10z"/>
<path d="M670 375 l0 -85 65 0 c75 0 89 17 18 22 -44 3 -48 5 -51 31 -3 26 -2
27 42 27 25 0 46 5 46 10 0 6 -20 10 -45 10 -41 0 -45 2 -45 25 0 23 3 25 50
25 28 0 50 5 50 10 0 6 -28 10 -65 10 l-65 0 0 -85z"/>
<path d="M834 447 c-3 -8 -4 -45 -2 -83 2 -56 6 -69 21 -72 14 -3 17 4 17 38
0 34 3 41 16 36 9 -3 17 -6 19 -6 2 0 13 -16 25 -35 12 -19 28 -35 36 -35 19
0 18 9 -6 45 -17 26 -18 31 -4 46 9 10 14 30 12 46 -3 27 -5 28 -66 31 -46 2
-64 -1 -68 -11z m104 -34 c3 -20 -1 -23 -32 -23 -32 0 -36 3 -36 26 0 23 3 25
33 22 24 -2 33 -8 35 -25z"/>
<path d="M1194 447 c-3 -8 -4 -45 -2 -83 2 -53 6 -69 18 -69 10 0 16 12 18 33
3 27 7 32 28 32 54 0 80 32 64 75 -9 23 -15 25 -65 25 -37 0 -57 -4 -61 -13z
m94 -31 c4 -20 -13 -36 -40 -36 -13 0 -18 8 -18 31 0 27 3 30 27 27 18 -2 29
-10 31 -22z"/>
<path d="M1440 375 l0 -85 65 0 c37 0 65 4 65 10 0 6 -22 10 -50 10 -49 0 -50
1 -50 30 0 29 2 30 45 30 25 0 45 5 45 10 0 6 -20 10 -45 10 -41 0 -45 2 -45
25 0 23 4 25 44 25 25 0 48 5 51 10 4 6 -18 10 -59 10 l-66 0 0 -85z"/>
<path d="M532 204 c-36 -25 -25 -55 28 -81 52 -25 62 -56 18 -61 -19 -2 -30 3
-38 17 -12 24 -30 28 -30 7 0 -26 30 -46 69 -46 44 0 61 14 61 51 0 31 -9 39
-59 54 -41 12 -50 30 -23 44 16 8 25 6 45 -9 19 -15 28 -17 33 -9 9 16 -32 49
-60 49 -12 0 -32 -7 -44 -16z"/>
<path d="M707 200 c-34 -27 -44 -78 -23 -118 17 -33 34 -42 77 -42 28 0 69 30
69 49 0 20 -19 21 -29 2 -14 -26 -45 -35 -71 -21 -15 8 -20 21 -20 53 0 67 41
89 86 46 32 -30 41 -5 10 26 -30 30 -65 32 -99 5z"/>
<path d="M911 202 c-10 -19 -61 -151 -61 -158 0 -14 30 0 35 16 5 16 15 20 47
20 31 0 41 -4 45 -20 6 -22 33 -28 33 -7 0 13 -49 132 -63 155 -11 17 -25 15
-36 -6z m42 -94 c-2 -5 -13 -8 -24 -8 -22 0 -24 16 -8 57 l11 28 13 -35 c7
-19 10 -38 8 -42z"/>
<path d="M1044 207 c-3 -8 -4 -47 -2 -88 l3 -74 49 -3 c27 -2 56 0 64 3 26 10
-5 25 -50 25 l-38 0 0 75 c0 45 -4 75 -10 75 -6 0 -13 -6 -16 -13z"/>
<path d="M1237 198 c-23 -38 -60 -148 -52 -156 4 -4 14 3 22 15 21 31 89 33
98 3 6 -19 35 -29 35 -12 -1 20 -67 166 -77 169 -6 2 -18 -6 -26 -19z m37 -50
c10 -38 7 -48 -12 -48 -27 0 -32 8 -20 41 12 35 23 37 32 7z"/>
</g>
</svg>
