<?xml version="1.0" standalone="no"?>
<!DOCTYPE svg PUBLIC "-//W3C//DTD SVG 20010904//EN"
 "http://www.w3.org/TR/2001/REC-SVG-20010904/DTD/svg10.dtd">
<svg version="1.0" xmlns="http://www.w3.org/2000/svg"
 width="400.000000pt" height="127.000000pt" viewBox="0 0 400.000000 127.000000"
 preserveAspectRatio="xMidYMid meet">

<g transform="translate(0.000000,127.000000) scale(0.100000,-0.100000)"
fill="#000000" stroke="none">
<path d="M500 1174 c-197 -42 -364 -203 -415 -400 -68 -261 79 -544 334 -644
62 -24 187 -42 231 -34 l30 7 0 73 0 74 75 0 75 0 0 75 0 75 80 0 80 0 0 80 0
80 85 0 85 0 0 73 c0 261 -183 488 -437 542 -83 18 -138 18 -223 -1z m350
-477 l0 -193 -65 -64 -65 -64 0 144 0 145 -143 -143 -142 -142 -48 47 -47 48
142 142 143 143 -143 0 c-78 0 -142 3 -142 7 0 4 26 33 57 65 l57 58 198 0
198 0 0 -193z"/>
<path d="M2667 1148 c-26 -24 -170 -379 -165 -406 4 -21 32 -36 52 -29 9 4 26
29 38 57 l21 50 91 0 92 0 21 -50 c12 -27 29 -53 38 -57 23 -8 49 9 53 33 1
10 -31 102 -73 204 -89 221 -113 249 -168 198z m72 -167 c17 -47 31 -86 31
-88 0 -2 -29 -3 -65 -3 -36 0 -65 3 -65 6 0 4 11 39 25 78 14 39 28 77 31 85
7 20 9 16 43 -78z"/>
<path d="M3418 1159 c-16 -9 -18 -30 -18 -218 0 -172 3 -211 15 -221 21 -17
61 -4 69 22 3 13 6 105 6 206 0 169 -1 183 -20 202 -23 23 -28 24 -52 9z"/>
<path d="M1252 1151 c-8 -4 -12 -19 -10 -32 3 -22 8 -24 71 -27 l67 -3 0 -170
c0 -98 4 -178 10 -190 6 -11 21 -19 35 -19 14 0 29 8 35 19 6 12 10 92 10 190
l0 170 68 3 c62 3 67 5 70 27 2 13 -2 28 -10 32 -17 11 -329 11 -346 0z"/>
<path d="M1686 1144 c-22 -22 -24 -395 -2 -413 9 -8 63 -11 167 -9 143 3 154
4 157 22 7 36 -25 46 -140 46 l-108 0 0 65 0 65 109 0 c114 0 128 6 109 43 -7
14 -24 17 -113 17 l-105 0 0 55 0 55 104 0 c57 0 111 3 120 6 21 8 21 50 0 58
-9 3 -76 6 -149 6 -108 0 -137 -3 -149 -16z"/>
<path d="M2099 1143 c-10 -12 -15 -59 -17 -177 -4 -205 1 -244 34 -252 44 -11
54 9 54 109 l0 90 40 -6 c53 -7 62 -15 118 -109 26 -43 55 -81 64 -84 28 -9
58 5 58 27 0 29 -36 94 -75 138 l-35 39 30 12 c47 19 70 55 70 109 0 95 -46
121 -213 121 -94 0 -117 -3 -128 -17z m233 -65 c30 -24 31 -56 4 -83 -22 -22
-34 -25 -96 -25 l-70 0 0 60 0 60 73 0 c43 0 80 -5 89 -12z"/>
<path d="M2996 1144 c-14 -13 -16 -47 -16 -213 0 -208 3 -221 47 -221 32 0 43
28 43 109 l0 71 65 0 c124 0 179 42 179 137 0 63 -24 102 -75 120 -53 19 -224
17 -243 -3z m214 -74 c23 -23 26 -58 7 -84 -13 -18 -71 -35 -119 -36 -28 0
-28 0 -28 70 l0 70 60 0 c47 0 64 -4 80 -20z"/>
<path d="M3606 1144 c-22 -22 -24 -395 -2 -413 9 -8 63 -11 167 -9 143 3 154
4 157 22 7 36 -25 46 -140 46 l-108 0 0 65 0 65 109 0 c91 0 110 3 115 16 13
35 -12 44 -120 44 l-104 0 0 55 0 55 104 0 c121 0 136 4 136 35 0 13 -7 26
-16 29 -9 3 -76 6 -149 6 -108 0 -137 -3 -149 -16z"/>
<path d="M1340 522 c-22 -10 -42 -32 -54 -56 -17 -36 -18 -43 -5 -80 16 -46
60 -74 161 -101 64 -17 88 -36 88 -69 0 -32 -31 -57 -78 -63 -51 -7 -77 8
-102 58 -18 34 -25 40 -48 37 -22 -2 -28 -9 -30 -36 -7 -76 69 -126 183 -120
60 3 78 8 108 31 66 50 71 152 9 196 -15 10 -66 31 -115 46 -86 26 -109 44
-99 75 8 26 35 40 78 40 35 0 47 -5 68 -31 14 -17 26 -35 26 -40 0 -18 49 -9
60 11 15 28 -5 68 -49 97 -43 29 -148 32 -201 5z"/>
<path d="M1794 521 c-80 -36 -120 -120 -112 -233 4 -56 11 -78 34 -110 45 -64
75 -82 148 -86 80 -5 123 9 166 53 27 27 33 43 34 77 1 40 -1 43 -26 46 -23 3
-30 -2 -42 -31 -22 -55 -53 -77 -106 -77 -26 0 -56 7 -69 16 -69 49 -68 230 3
279 11 8 41 15 67 15 49 0 52 -2 113 -75 20 -25 28 -28 43 -19 46 28 13 108
-59 143 -56 27 -138 28 -194 2z"/>
<path d="M2278 518 c-30 -49 -149 -370 -146 -396 2 -23 8 -27 33 -27 27 0 32
5 50 52 l20 53 92 0 93 0 15 -37 c24 -61 31 -68 61 -68 24 0 30 5 32 28 4 30
-128 369 -156 400 -22 25 -76 22 -94 -5z m85 -160 c15 -42 27 -79 27 -82 0 -3
-29 -6 -64 -6 l-65 0 32 90 c18 49 35 86 38 82 3 -4 18 -41 32 -84z"/>
<path d="M2610 521 c-6 -12 -10 -96 -10 -205 0 -241 -9 -229 171 -224 102 2
132 6 139 18 12 19 12 21 0 40 -7 11 -35 16 -115 18 l-105 4 0 172 c0 120 -4
176 -12 184 -18 18 -56 14 -68 -7z"/>
<path d="M3096 518 c-18 -28 -156 -374 -156 -391 0 -20 22 -37 46 -37 17 0 27
12 45 55 l23 55 93 0 c56 0 93 -4 93 -10 0 -6 10 -31 21 -56 18 -38 26 -45 47
-42 53 6 51 25 -27 220 -90 225 -92 228 -136 228 -25 0 -39 -6 -49 -22z m83
-160 l30 -88 -64 0 c-36 0 -65 2 -65 4 0 10 62 177 65 174 2 -2 17 -42 34 -90z"/>
</g>
</svg>
