<?xml version="1.0" standalone="no"?>
<!DOCTYPE svg PUBLIC "-//W3C//DTD SVG 20010904//EN"
 "http://www.w3.org/TR/2001/REC-SVG-20010904/DTD/svg10.dtd">
<svg version="1.0" xmlns="http://www.w3.org/2000/svg"
 width="191.000000pt" height="60.000000pt" viewBox="0 0 191.000000 60.000000"
 preserveAspectRatio="xMidYMid meet">

<g transform="translate(0.000000,60.000000) scale(0.100000,-0.100000)"
fill="#000000" stroke="none">
<path d="M214 559 c-55 -16 -127 -72 -159 -123 -27 -44 -30 -58 -30 -130 0
-92 17 -137 73 -194 47 -46 106 -72 170 -72 l52 0 0 35 c0 33 2 35 35 35 33 0
35 2 35 34 0 36 12 46 56 46 21 0 24 5 24 35 0 34 1 35 39 35 30 0 41 5 45 18
9 28 -11 120 -35 158 -62 102 -195 155 -305 123z m186 -232 c0 -91 -1 -94 -30
-122 l-30 -29 0 69 0 69 -70 -69 -70 -69 -22 22 -22 22 69 70 69 70 -67 0
c-37 0 -67 3 -67 7 0 4 10 17 22 30 20 21 30 23 120 23 l98 0 0 -93z"/>
<path d="M602 523 c2 -11 14 -19 30 -21 27 -3 27 -4 30 -90 3 -79 5 -87 23
-87 18 0 20 8 23 87 3 86 3 87 30 90 16 2 28 10 30 21 3 15 -6 17 -83 17 -77
0 -86 -2 -83 -17z"/>
<path d="M812 433 l3 -108 60 0 c47 0 60 3 60 15 0 10 -13 16 -42 18 -40 3
-43 5 -43 33 0 27 3 29 35 29 24 0 35 5 35 15 0 11 -11 15 -36 15 -33 0 -35 2
-32 28 3 24 7 27 46 30 66 5 47 26 -27 30 l-62 3 3 -108z"/>
<path d="M990 430 c0 -103 1 -110 20 -110 17 0 20 7 20 45 0 38 3 45 20 45 13
0 25 -14 39 -45 14 -32 26 -45 40 -45 27 0 26 15 -2 65 -21 38 -22 40 -5 57
24 24 23 53 -2 78 -15 15 -33 20 -75 20 l-55 0 0 -110z m88 71 c23 -14 10 -46
-21 -49 -23 -3 -27 0 -27 21 0 36 19 47 48 28z"/>
<path d="M1245 528 c-41 -116 -65 -188 -65 -197 0 -21 31 -11 42 14 9 21 18
25 53 25 35 0 44 -4 54 -26 10 -23 40 -31 43 -11 1 5 -14 53 -33 108 -32 93
-36 99 -62 99 -15 0 -30 -6 -32 -12z m55 -105 c0 -7 -11 -13 -25 -13 -28 0
-30 4 -13 51 l12 34 12 -30 c7 -17 13 -36 14 -42z"/>
<path d="M1420 430 c0 -103 1 -110 20 -110 17 0 20 7 20 40 0 37 2 40 29 40
36 0 68 26 77 62 10 44 -32 78 -96 78 l-50 0 0 -110z m88 68 c26 -26 2 -68
-37 -68 -12 0 -15 62 -4 73 10 11 28 8 41 -5z"/>
<path d="M1620 429 c0 -100 2 -110 18 -107 15 3 17 18 20 111 3 102 2 107 -18
107 -19 0 -20 -6 -20 -111z"/>
<path d="M1722 433 l3 -108 60 0 c49 0 60 3 63 18 3 14 -4 17 -42 17 -44 0
-46 1 -46 30 0 28 2 30 40 30 54 0 56 27 3 32 -33 3 -38 6 -38 28 0 22 5 25
43 28 28 2 42 8 42 18 0 11 -15 14 -65 14 l-66 0 3 -107z"/>
<path d="M627 252 c-36 -39 -9 -97 54 -117 10 -4 19 -13 19 -20 0 -22 -31 -34
-59 -24 -34 13 -54 -7 -27 -27 40 -29 117 -9 128 34 8 31 -9 60 -52 87 -35 22
-39 29 -29 41 8 10 21 13 42 8 24 -5 28 -3 25 13 -5 27 -78 31 -101 5z"/>
<path d="M805 246 c-26 -27 -41 -82 -31 -122 15 -60 84 -92 137 -64 35 19 23
39 -19 33 -49 -7 -72 14 -72 66 0 62 31 86 88 67 15 -5 22 -3 22 6 0 44 -86
53 -125 14z"/>
<path d="M981 171 c-19 -55 -34 -103 -33 -108 3 -20 33 -12 42 11 8 22 16 26
50 26 34 0 42 -4 50 -25 9 -23 50 -37 50 -17 0 4 -15 53 -33 107 -32 94 -35
100 -63 103 -28 3 -30 1 -63 -97z m76 4 c11 -34 11 -35 -17 -35 -28 0 -28 1
-17 35 6 19 13 35 17 35 4 0 11 -16 17 -35z"/>
<path d="M1172 163 l3 -108 58 -3 c52 -3 57 -1 57 18 0 16 -6 20 -35 20 l-34
0 -3 88 c-3 82 -4 87 -26 90 -23 3 -23 3 -20 -105z"/>
<path d="M1365 258 c-39 -109 -65 -189 -65 -197 0 -23 40 -11 46 14 5 22 12
25 49 25 37 0 44 -3 49 -25 6 -24 39 -36 49 -17 2 4 -12 52 -32 107 -33 91
-39 100 -64 103 -16 2 -29 -2 -32 -10z m55 -105 c0 -7 -11 -13 -25 -13 -28 0
-30 4 -13 51 l12 34 12 -30 c7 -17 13 -36 14 -42z"/>
</g>
</svg>
