<?xml version="1.0" standalone="no"?>
<!DOCTYPE svg PUBLIC "-//W3C//DTD SVG 20010904//EN"
 "http://www.w3.org/TR/2001/REC-SVG-20010904/DTD/svg10.dtd">
<svg version="1.0" xmlns="http://www.w3.org/2000/svg"
 width="160.000000pt" height="50.000000pt" viewBox="0 0 800.000000 253.000000"
 preserveAspectRatio="xMidYMid meet">

<g transform="translate(0.000000,253.000000) scale(0.100000,-0.100000)"
fill="#000000" stroke="none">
<path d="M985 2380 c-156 -32 -264 -76 -401 -165 -343 -223 -542 -635 -503
-1044 43 -454 335 -825 765 -970 124 -42 187 -51 346 -51 l137 0 3 153 3 152
158 3 157 3 0 159 0 160 160 0 160 0 2 163 3 162 172 3 171 2 7 93 c23 324
-104 649 -343 879 -171 165 -355 259 -591 303 -111 20 -292 18 -406 -5z m695
-987 l0 -396 -130 -131 -130 -131 0 300 0 300 -295 -295 -295 -295 -95 95 -95
95 290 290 c159 160 290 293 290 297 0 4 -131 9 -291 10 l-290 3 127 128 127
127 394 0 393 0 0 -397z"/>
<path d="M2530 2254 c-6 -14 -10 -36 -10 -49 0 -13 4 -35 10 -49 9 -26 10 -26
130 -26 l120 0 0 -375 0 -375 26 -10 c33 -13 95 -13 128 0 l26 9 2 373 3 373
120 3 c80 2 122 7 127 15 11 18 10 95 -2 118 -10 18 -25 19 -341 19 l-329 0
-10 -26z"/>
<path d="M3404 2266 c-18 -14 -19 -32 -22 -428 -1 -320 1 -419 11 -438 l13
-25 254 0 255 0 0 65 0 65 -172 3 -173 2 0 130 0 130 144 0 c160 0 156 -2 156
70 0 72 4 70 -156 70 l-144 0 0 110 0 110 165 0 c152 0 165 1 175 19 14 27 13
104 -2 119 -19 19 -478 17 -504 -2z"/>
<path d="M4165 2267 c-19 -15 -20 -29 -23 -444 -1 -235 2 -434 7 -441 11 -18
118 -27 154 -13 l27 11 0 180 0 180 41 0 c54 0 99 -23 125 -63 12 -18 45 -92
75 -166 60 -147 63 -151 149 -151 57 0 100 14 100 32 0 23 -118 290 -146 330
-15 21 -39 45 -53 52 l-25 14 40 20 c83 42 124 104 131 197 10 121 -40 205
-145 247 -50 19 -79 22 -247 26 -157 3 -193 1 -210 -11z m330 -141 c76 -22
108 -113 65 -184 -27 -44 -74 -62 -160 -62 l-70 0 0 130 0 130 63 -1 c34 0 80
-6 102 -13z"/>
<path d="M5238 2266 c-13 -12 -287 -789 -303 -858 -9 -34 16 -48 82 -47 78 1
84 6 118 110 l32 94 173 0 173 0 32 -94 c35 -106 39 -109 131 -110 115 -2 118
-33 -51 455 -81 236 -155 437 -163 447 -12 14 -32 17 -113 17 -70 0 -102 -4
-111 -14z m169 -361 l61 -185 -128 0 -128 0 61 185 c34 102 64 185 67 185 3 0
33 -83 67 -185z"/>
<path d="M5960 2260 c-19 -19 -20 -33 -20 -450 l0 -430 28 -11 c35 -14 142 -5
153 13 5 7 9 76 9 154 l0 141 92 7 c234 18 338 117 338 321 -1 112 -42 185
-130 230 -66 33 -145 45 -307 45 -130 0 -145 -2 -163 -20z m293 -129 c69 -11
108 -52 115 -119 6 -63 -10 -111 -49 -148 -27 -26 -38 -29 -110 -33 l-79 -3 0
156 0 156 38 -1 c20 0 59 -4 85 -8z"/>
<path d="M6770 2261 c-6 -13 -10 -171 -10 -444 0 -373 2 -426 16 -438 20 -17
112 -23 147 -10 l27 11 0 444 c0 506 11 456 -100 456 -58 0 -71 -3 -80 -19z"/>
<path d="M7228 2269 c-17 -9 -18 -41 -18 -443 0 -356 2 -436 14 -445 9 -8 87
-11 262 -9 l249 3 5 30 c3 17 3 46 0 65 l-5 35 -173 3 -172 2 0 130 0 129 148
3 147 3 3 44 c7 94 11 91 -153 91 l-145 0 0 110 0 110 163 0 c113 0 167 4 175
12 12 12 16 95 6 122 -5 14 -36 16 -248 16 -145 0 -248 -5 -258 -11z"/>
<path d="M2737 1136 c-71 -19 -127 -63 -159 -125 -55 -106 -28 -250 60 -320
21 -16 86 -53 145 -81 120 -59 147 -85 147 -140 0 -112 -147 -145 -308 -70
-85 39 -92 36 -92 -43 0 -61 11 -82 58 -106 103 -51 273 -55 374 -7 68 32 129
98 147 157 31 101 7 212 -57 273 -17 15 -88 58 -159 95 -105 54 -131 72 -145
99 -19 39 -10 87 22 113 44 37 162 28 241 -19 44 -25 59 -11 59 57 0 48 -4 64
-21 79 -48 46 -210 65 -312 38z"/>
<path d="M3535 1137 c-113 -30 -202 -101 -253 -204 -34 -68 -41 -92 -52 -193
-16 -140 15 -290 79 -383 38 -55 118 -110 195 -132 109 -32 291 -7 362 50 25
20 28 29 29 83 0 84 -8 89 -85 50 -57 -30 -72 -33 -150 -33 -78 0 -91 3 -128
28 -81 53 -123 197 -102 345 12 88 28 127 69 174 43 50 87 68 163 68 53 0 74
-6 132 -36 38 -19 75 -33 83 -30 9 4 13 25 13 71 0 57 -3 69 -24 88 -58 54
-226 81 -331 54z"/>
<path d="M4257 1126 c-15 -15 -307 -850 -307 -877 0 -23 21 -29 95 -29 39 0
67 5 72 12 4 7 22 53 39 103 l31 90 173 0 173 0 31 -90 c17 -50 35 -96 39
-103 12 -18 161 -16 176 2 12 15 6 34 -188 591 -57 164 -108 295 -118 303 -24
18 -197 16 -216 -2z m167 -361 c31 -94 56 -176 56 -183 0 -9 -32 -12 -126 -12
-97 0 -125 3 -121 13 2 6 31 92 63 189 32 98 61 174 65 170 4 -4 32 -84 63
-177z"/>
<path d="M4928 1133 c-10 -2 -20 -14 -23 -26 -3 -12 -4 -210 -3 -440 3 -401 4
-419 22 -433 26 -19 445 -21 464 -2 16 16 16 120 0 136 -8 8 -57 12 -155 12
l-143 0 0 370 c0 355 -1 370 -19 380 -19 10 -109 12 -143 3z"/>
<path d="M5742 1123 c-16 -15 -240 -637 -299 -832 -18 -61 -8 -71 78 -71 81 0
82 1 124 128 l27 82 170 -2 171 -3 27 -81 c44 -129 39 -124 125 -124 82 0 105
6 105 26 0 8 -66 204 -146 436 -95 276 -153 429 -166 441 -16 13 -39 17 -108
17 -69 0 -92 -4 -108 -17z m162 -350 c32 -98 61 -184 63 -190 4 -10 -24 -13
-121 -13 -69 0 -126 3 -126 8 -1 13 115 372 120 372 3 0 32 -80 64 -177z"/>
</g>
</svg>
